<svg xmlns="http://www.w3.org/2000/svg" xmlns:xlink="http://www.w3.org/1999/xlink" width="500" zoomAndPan="magnify" viewBox="0 0 375 374.999991" height="500" preserveAspectRatio="xMidYMid meet" version="1.0"><defs><clipPath id="a7716c7c75"><path d="M 200 146 L 314 146 L 314 243 L 200 243 Z M 200 146 " clip-rule="nonzero"/></clipPath><clipPath id="01085b7b21"><path d="M 253.175781 113.78125 L 375.046875 171.90625 L 310.925781 306.351562 L 189.054688 248.222656 Z M 253.175781 113.78125 " clip-rule="nonzero"/></clipPath><clipPath id="c45d4b820d"><path d="M 253.175781 113.78125 L 375.046875 171.90625 L 310.925781 306.351562 L 189.054688 248.222656 Z M 253.175781 113.78125 " clip-rule="nonzero"/></clipPath><clipPath id="c3d6af160f"><path d="M 197 166 L 337 166 L 337 253 L 197 253 Z M 197 166 " clip-rule="nonzero"/></clipPath><clipPath id="3c449025e3"><path d="M 253.175781 113.78125 L 375.046875 171.90625 L 310.925781 306.351562 L 189.054688 248.222656 Z M 253.175781 113.78125 " clip-rule="nonzero"/></clipPath><clipPath id="d0a96f7ad9"><path d="M 253.175781 113.78125 L 375.046875 171.90625 L 310.925781 306.351562 L 189.054688 248.222656 Z M 253.175781 113.78125 " clip-rule="nonzero"/></clipPath><clipPath id="69972b3af9"><path d="M 204 128 L 291 128 L 291 233 L 204 233 Z M 204 128 " clip-rule="nonzero"/></clipPath><clipPath id="6df273aded"><path d="M 253.175781 113.78125 L 375.046875 171.90625 L 310.925781 306.351562 L 189.054688 248.222656 Z M 253.175781 113.78125 " clip-rule="nonzero"/></clipPath><clipPath id="46530740a0"><path d="M 253.175781 113.78125 L 375.046875 171.90625 L 310.925781 306.351562 L 189.054688 248.222656 Z M 253.175781 113.78125 " clip-rule="nonzero"/></clipPath><clipPath id="964b82c160"><path d="M 61 146 L 175 146 L 175 244 L 61 244 Z M 61 146 " clip-rule="nonzero"/></clipPath><clipPath id="dd4241e4d4"><path d="M 0 171.472656 L 122.121094 113.878906 L 185.660156 248.601562 L 63.539062 306.195312 Z M 0 171.472656 " clip-rule="nonzero"/></clipPath><clipPath id="b11da7d80a"><path d="M 122.0625 113.90625 L -0.0625 171.5 L 63.476562 306.222656 L 185.597656 248.628906 Z M 122.0625 113.90625 " clip-rule="nonzero"/></clipPath><clipPath id="16410b3602"><path d="M 38 166 L 178 166 L 178 253 L 38 253 Z M 38 166 " clip-rule="nonzero"/></clipPath><clipPath id="23f1395ecb"><path d="M 0 171.472656 L 122.121094 113.878906 L 185.660156 248.601562 L 63.539062 306.195312 Z M 0 171.472656 " clip-rule="nonzero"/></clipPath><clipPath id="7cd26689de"><path d="M 122.0625 113.90625 L -0.0625 171.5 L 63.476562 306.222656 L 185.597656 248.628906 Z M 122.0625 113.90625 " clip-rule="nonzero"/></clipPath><clipPath id="d569d3bca2"><path d="M 83 128 L 171 128 L 171 233 L 83 233 Z M 83 128 " clip-rule="nonzero"/></clipPath><clipPath id="8bf9adc166"><path d="M 0 171.472656 L 122.121094 113.878906 L 185.660156 248.601562 L 63.539062 306.195312 Z M 0 171.472656 " clip-rule="nonzero"/></clipPath><clipPath id="21160db96f"><path d="M 122.0625 113.90625 L -0.0625 171.5 L 63.476562 306.222656 L 185.597656 248.628906 Z M 122.0625 113.90625 " clip-rule="nonzero"/></clipPath><clipPath id="88297f086f"><path d="M 123 69.066406 L 226 69.066406 L 226 103 L 123 103 Z M 123 69.066406 " clip-rule="nonzero"/></clipPath><clipPath id="27329c6e86"><path d="M 145 100 L 229 100 L 229 223.378906 L 145 223.378906 Z M 145 100 " clip-rule="nonzero"/></clipPath><clipPath id="c1bf41b0b0"><path d="M 89 255 L 285.980469 255 L 285.980469 305.820312 L 89 305.820312 Z M 89 255 " clip-rule="nonzero"/></clipPath></defs><rect x="-37.5" width="450" fill="#ffffff" y="-37.499999" height="449.999989" fill-opacity="1"/><rect x="-37.5" width="450" fill="#ffffff" y="-37.499999" height="449.999989" fill-opacity="1"/><rect x="-37.5" width="450" fill="#000000" y="-37.499999" height="449.999989" fill-opacity="1"/><g clip-path="url(#a7716c7c75)"><g clip-path="url(#01085b7b21)"><g clip-path="url(#c45d4b820d)"><path fill="#1eb854" d="M 313.695312 232.695312 L 306.429688 146.902344 C 306.429688 146.902344 297.828125 147.945312 287.648438 151.125 L 288.378906 159.714844 C 291.121094 159.578125 294.019531 159.640625 297.0625 159.964844 L 303.339844 222.132812 C 303.339844 222.132812 232.96875 214.082031 200.425781 242.984375 C 200.425781 242.984375 241.082031 218.527344 313.695312 232.695312 " fill-opacity="1" fill-rule="nonzero"/></g></g></g><g clip-path="url(#c3d6af160f)"><g clip-path="url(#3c449025e3)"><g clip-path="url(#d0a96f7ad9)"><path fill="#1eb854" d="M 329.332031 166.640625 C 329.332031 166.640625 320.730469 167.683594 310.554688 170.867188 L 311.28125 179.453125 C 314.027344 179.320312 316.921875 179.382812 319.964844 179.703125 L 326.242188 241.871094 C 326.242188 241.871094 242.871094 223.164062 197.003906 252.023438 C 197.003906 252.023438 247.558594 234.246094 336.601562 252.4375 L 329.332031 166.640625 " fill-opacity="1" fill-rule="nonzero"/></g></g></g><g clip-path="url(#69972b3af9)"><g clip-path="url(#6df273aded)"><g clip-path="url(#46530740a0)"><path fill="#1eb854" d="M 204.464844 232.332031 C 204.464844 232.332031 239.328125 204.554688 290.910156 214.109375 L 283.640625 128.3125 C 283.640625 128.3125 244.851562 133.015625 234.546875 152.921875 C 234.546875 152.921875 249.847656 138.78125 274.273438 141.378906 L 280.550781 203.546875 C 280.550781 203.546875 230.65625 201.828125 204.464844 232.332031 " fill-opacity="1" fill-rule="nonzero"/></g></g></g><g clip-path="url(#964b82c160)"><g clip-path="url(#dd4241e4d4)"><g clip-path="url(#b11da7d80a)"><path fill="#1eb854" d="M 61.027344 232.558594 L 68.667969 146.796875 C 68.667969 146.796875 77.265625 147.878906 87.425781 151.101562 L 86.664062 159.6875 C 83.917969 159.542969 81.019531 159.589844 77.976562 159.902344 L 71.429688 222.039062 C 71.429688 222.039062 141.835938 214.296875 174.25 243.339844 C 174.25 243.339844 133.703125 218.703125 61.027344 232.558594 " fill-opacity="1" fill-rule="nonzero"/></g></g></g><g clip-path="url(#16410b3602)"><g clip-path="url(#23f1395ecb)"><g clip-path="url(#7cd26689de)"><path fill="#1eb854" d="M 45.679688 166.433594 C 45.679688 166.433594 54.273438 167.515625 64.4375 170.742188 L 63.671875 179.328125 C 60.929688 179.179688 58.03125 179.230469 54.988281 179.539062 L 48.441406 241.679688 C 48.441406 241.679688 131.890625 223.335938 177.632812 252.394531 C 177.632812 252.394531 127.15625 234.398438 38.035156 252.199219 L 45.679688 166.433594 " fill-opacity="1" fill-rule="nonzero"/></g></g></g><g clip-path="url(#d569d3bca2)"><g clip-path="url(#8bf9adc166)"><g clip-path="url(#21160db96f)"><path fill="#1eb854" d="M 170.261719 232.671875 C 170.261719 232.671875 135.519531 204.742188 83.890625 214.070312 L 91.535156 128.308594 C 91.535156 128.308594 130.304688 133.175781 140.519531 153.128906 C 140.519531 153.128906 125.28125 138.921875 100.847656 141.414062 L 94.296875 203.550781 C 94.296875 203.550781 144.199219 202.054688 170.261719 232.671875 " fill-opacity="1" fill-rule="nonzero"/></g></g></g><g clip-path="url(#88297f086f)"><path fill="#1eb854" d="M 225.15625 86.339844 C 225.046875 88.019531 223.863281 89.449219 222.265625 90.023438 L 188.816406 102.054688 C 188.355469 102.21875 187.871094 102.300781 187.382812 102.300781 C 186.902344 102.300781 186.414062 102.21875 185.957031 102.054688 L 154.828125 90.863281 C 153.84375 90.507812 153.363281 89.386719 153.824219 88.421875 C 154.222656 87.582031 155.242188 87.226562 156.121094 87.542969 L 187.171875 98.707031 C 187.3125 98.757812 187.460938 98.757812 187.59375 98.707031 L 221.171875 86.632812 C 221.503906 86.515625 221.578125 86.257812 221.578125 86.066406 C 221.582031 85.90625 221.53125 85.617188 221.183594 85.488281 L 187.605469 72.757812 C 187.464844 72.703125 187.304688 72.703125 187.164062 72.757812 L 163.945312 81.558594 C 164.769531 81.851562 165.617188 82.171875 166.484375 82.519531 C 178.804688 87.441406 187.242188 83.300781 190.28125 81.316406 C 190.578125 81.117188 190.917969 81.023438 191.257812 81.023438 C 191.753906 81.023438 192.242188 81.230469 192.59375 81.621094 C 193.320312 82.4375 193.148438 83.695312 192.230469 84.289062 C 188.535156 86.695312 178.898438 91.3125 165.144531 85.820312 C 145.882812 78.121094 138.304688 84.722656 135.902344 88.011719 L 138.105469 89.335938 L 132.695312 97.996094 C 131.328125 100.1875 128.460938 100.917969 126.195312 99.652344 C 123.800781 98.3125 123.003906 95.269531 124.441406 92.945312 L 129.761719 84.320312 L 132.875 86.191406 C 135.464844 82.636719 142.59375 76.097656 158.320312 79.886719 L 185.886719 69.4375 C 186.851562 69.070312 187.914062 69.070312 188.882812 69.4375 L 222.460938 82.167969 C 224.195312 82.820312 225.273438 84.480469 225.15625 86.339844 Z M 225.15625 86.339844 " fill-opacity="1" fill-rule="nonzero"/></g><g clip-path="url(#27329c6e86)"><path fill="#1eb854" d="M 203.480469 100.859375 L 188.816406 106.132812 C 188.355469 106.296875 187.871094 106.378906 187.386719 106.378906 C 186.902344 106.378906 186.417969 106.296875 185.957031 106.132812 L 170.777344 100.675781 C 163.941406 124.148438 145.21875 143.109375 145.21875 143.109375 C 150.617188 149.398438 155.917969 157.441406 160.875 166.386719 L 175.910156 198.582031 C 178.714844 205.722656 183.207031 216.679688 185.285156 223.382812 L 184.816406 189.226562 C 185.050781 184.164062 185.058594 158.664062 184.929688 147.476562 C 183.292969 146.652344 182.167969 144.96875 182.167969 143.019531 C 182.167969 140.292969 184.367188 138.078125 187.101562 138.023438 C 189.832031 138.078125 192.035156 140.292969 192.035156 143.019531 C 192.035156 144.96875 190.910156 146.652344 189.273438 147.476562 C 189.140625 158.664062 189.152344 184.164062 189.382812 189.226562 L 188.917969 223.382812 C 190.996094 216.679688 195.484375 205.722656 198.289062 198.582031 L 213.324219 166.386719 C 218.285156 157.441406 223.582031 149.398438 228.984375 143.109375 C 228.984375 143.109375 210.359375 124.246094 203.480469 100.859375 Z M 203.480469 100.859375 " fill-opacity="1" fill-rule="nonzero"/></g><g clip-path="url(#c1bf41b0b0)"><path fill="#ffffff" d="M 284.445312 275.5625 C 282.867188 273.242188 280.167969 272.613281 277.550781 272.152344 C 274.761719 271.664062 271.917969 271.601562 269.09375 271.605469 C 257.492188 271.605469 245.886719 271.953125 234.304688 272.554688 C 210.980469 273.757812 187.710938 276.089844 164.617188 279.566406 C 153.207031 281.285156 141.84375 283.304688 130.527344 285.566406 C 124.945312 286.679688 119.359375 287.789062 113.707031 288.484375 C 109.039062 289.0625 104.113281 289.621094 99.46875 288.5625 C 95.023438 287.546875 91.355469 284.582031 90.835938 279.828125 C 90.238281 274.398438 93.425781 269.640625 96.851562 265.753906 C 99.328125 262.949219 102.003906 260.144531 105.257812 258.238281 C 107.519531 256.910156 110.386719 255.929688 113.011719 256.613281 C 115.421875 257.242188 116.457031 259.367188 116.214844 261.75 C 116.007812 263.753906 114.863281 265.605469 113.332031 266.875 C 111.394531 268.480469 108.875 269.179688 106.414062 268.515625 C 105.761719 268.339844 105.941406 268.804688 106.4375 268.953125 C 110.21875 270.074219 114.398438 268.273438 116.582031 265.0625 C 117.742188 263.351562 118.328125 261.109375 117.789062 259.074219 C 117.222656 256.933594 115.265625 255.789062 113.171875 255.527344 C 108.308594 254.921875 103.726562 257.882812 100.292969 261.003906 C 96.414062 264.535156 92.519531 268.742188 90.578125 273.683594 C 88.738281 278.371094 88.832031 284.203125 92.402344 288.074219 C 95.433594 291.367188 100.128906 292.386719 104.433594 292.566406 C 110.023438 292.796875 115.699219 291.929688 121.199219 291.019531 C 127.207031 290.027344 133.167969 288.773438 139.148438 287.640625 C 163.3125 283.078125 187.707031 279.726562 212.210938 277.632812 C 224.4375 276.585938 236.691406 275.859375 248.953125 275.445312 C 255.019531 275.238281 261.089844 275.109375 267.160156 275.058594 C 270.097656 275.03125 273.046875 274.96875 275.976562 275.179688 C 277.414062 275.28125 278.847656 275.457031 280.257812 275.753906 C 280.992188 275.90625 281.730469 276.085938 282.441406 276.324219 C 282.546875 276.359375 282.648438 276.394531 282.753906 276.433594 C 282.71875 276.515625 282.675781 276.59375 282.617188 276.667969 C 282.332031 277.023438 281.925781 277.296875 281.535156 277.519531 C 280.53125 278.09375 279.4375 278.324219 278.300781 278.46875 C 275.175781 278.855469 272.050781 279.246094 268.925781 279.636719 C 262.804688 280.398438 256.683594 281.164062 250.5625 281.925781 C 238.324219 283.453125 226.082031 284.984375 213.839844 286.511719 L 204.664062 287.65625 C 203.636719 287.78125 205.574219 291.09375 206.609375 291.058594 C 223.601562 290.507812 240.609375 289.953125 257.613281 290.238281 C 258.597656 290.253906 259.578125 290.273438 260.566406 290.296875 C 254.675781 291.933594 248.695312 293.246094 242.652344 294.21875 C 241.558594 294.394531 243.625 297.59375 244.59375 297.621094 C 248.777344 297.75 252.953125 298.015625 257.121094 298.417969 C 254.925781 299.921875 252.511719 301.144531 249.996094 301.894531 C 249.128906 302.148438 250.207031 305.683594 251.117188 305.414062 C 255.519531 304.105469 259.484375 302.105469 262.894531 298.988281 C 263.351562 298.570312 262.671875 297.507812 262.449219 297.15625 C 262.085938 296.589844 261.488281 295.726562 260.753906 295.636719 C 259.445312 295.46875 258.128906 295.320312 256.816406 295.179688 C 262.070312 293.925781 267.261719 292.417969 272.371094 290.660156 C 273.257812 290.355469 271.007812 287.34375 270.234375 287.304688 C 260.46875 286.832031 250.695312 286.707031 240.925781 286.78125 C 253.042969 285.269531 265.160156 283.761719 277.277344 282.25 C 279.484375 281.976562 282.03125 281.964844 283.972656 280.734375 C 286 279.449219 285.675781 277.367188 284.445312 275.5625 " fill-opacity="1" fill-rule="nonzero"/></g></svg>